Love for All and Sharing is the first step to solving all the problems of humanity.

Website I want to share. 
               
   http://www.scenetime.com
 
 
  Credit to EVERYONE for sharing and seeding back
 especially to SCENETIME.COM where i get all my 
 downloads.


 support www.scenetime.com to grow faster.

                             
                                                            
                                                   

.                 ..................................NFO:....................................[img]http://leetleech.org/images/66986293147100248259.jpg[/img]

[b]Abandoned (2010) DVDRip XviD-SKITTLES[/b]

[img]http://leetleech.org/images/39185456263711143641.png[/img]

Video
ID                               : 0
Format                           : MPEG-4 Visual
Format profile                   : Advanced Simple@L5
Format settings, BVOP            : Yes
Format settings, QPel            : No
Format settings, GMC             : No warppoints
Format settings, Matrix          : Default (H.263)
Muxing mode                      : Packed bitstream
Codec ID                         : XVID
Codec ID/Hint                    : XviD
Duration                         : 1h 28mn
Bit rate                         : 980 Kbps
Width                            : 640 pixels
Height                           : 352 pixels
Display aspect ratio             : 16:9
Frame rate                       : 23.976 fps
Color space                      : YUV
Chroma subsampling               : 4:2:0
Bit depth                        : 8 bits
Scan type                        : Progressive
Bits/(Pixel*Frame)               : 0.181
Stream size                      : 617 MiB (88%)
Writing library                  : XviD 1.2.1 (UTC 2008-12-04)

Audio
ID                               : 1
Format                           : MPEG Audio
Format version                   : Version 1
Format profile                   : Layer 3
Mode                             : Joint stereo
Mode extension                   : MS Stereo
Codec ID                         : 55
Codec ID/Hint                    : MP3
Duration                         : 1h 28mn
Bit rate mode                    : Constant
Bit rate                         : 128 Kbps
Channel(s)                       : 2 channels
Sampling rate                    : 48.0 KHz
Video delay                      : 1s 0ms
Stream size                      : 80.6 MiB (11%)
Alignment                        : Split accross interleaves
Interleave, duration             : 42 ms (1.00 video frame)
Interleave, preload duration     : 500 ms 
http://www.imdb.com/title/tt1470171/

[img]http://leetleech.org/images/46941880339015444838.png[/img]

Brittany Murphy	... 	Mary
Dean Cain	... 	Kevin

[img]http://leetleech.org/images/70187465700988366433.png[/img]

Genre:
Drama | Mystery | Thriller

Plot:
Mary Walsh delivers boyfriend Kevin to a hospital for routine
outpatient surgery. But when Mary returns to take him home...

[img]http://leetleech.org/images/64476088802225496360.png[/img]

[img]http://leetleech.org/images/95143578846287157928.png[/img]
[img]http://leetleech.org/images/84872753521093054908.png[/img]
[img]http://leetleech.org/images/51501394800487542117.png[/img]
[img]http://leetleech.org/images/58360583146826578998.png[/img]
[img]http://leetleech.org/images/68771907240845935886.png[/img]
[img]http://leetleech.org/images/47024339497347085864.png[/img]